<svg version="1.1" xmlns="http://www.w3.org/2000/svg" xmlns:xlink="http://www.w3.org/1999/xlink" width="692" height="212"><defs/><g><text fill="#eeeeee" stroke="none" font-family="Arial" font-size="24px" font-style="normal" font-weight="normal" text-decoration="none" x="0" y="0">UNREGISTERED</text><text fill="#eeeeee" stroke="none" font-family="Arial" font-size="24px" font-style="normal" font-weight="normal" text-decoration="none" x="0" y="30">UNREGISTERED</text><text fill="#eeeeee" stroke="none" font-family="Arial" font-size="24px" font-style="normal" font-weight="normal" text-decoration="none" x="0" y="60">UNREGISTERED</text><text fill="#eeeeee" stroke="none" font-family="Arial" font-size="24px" font-style="normal" font-weight="normal" text-decoration="none" x="0" y="90">UNREGISTERED</text><text fill="#eeeeee" stroke="none" font-family="Arial" font-size="24px" font-style="normal" font-weight="normal" text-decoration="none" x="0" y="120">UNREGISTERED</text><text fill="#eeeeee" stroke="none" font-family="Arial" font-size="24px" font-style="normal" font-weight="normal" text-decoration="none" x="0" y="150">UNREGISTERED</text><text fill="#eeeeee" stroke="none" font-family="Arial" font-size="24px" font-style="normal" font-weight="normal" text-decoration="none" x="0" y="180">UNREGISTERED</text><text fill="#eeeeee" stroke="none" font-family="Arial" font-size="24px" font-style="normal" font-weight="normal" text-decoration="none" x="0" y="210">UNREGISTERED</text><text fill="#eeeeee" stroke="none" font-family="Arial" font-size="24px" font-style="normal" font-weight="normal" text-decoration="none" x="200" y="0">UNREGISTERED</text><text fill="#eeeeee" stroke="none" font-family="Arial" font-size="24px" font-style="normal" font-weight="normal" text-decoration="none" x="200" y="30">UNREGISTERED</text><text fill="#eeeeee" stroke="none" font-family="Arial" font-size="24px" font-style="normal" font-weight="normal" text-decoration="none" x="200" y="60">UNREGISTERED</text><text fill="#eeeeee" stroke="none" font-family="Arial" font-size="24px" font-style="normal" font-weight="normal" text-decoration="none" x="200" y="90">UNREGISTERED</text><text fill="#eeeeee" stroke="none" font-family="Arial" font-size="24px" font-style="normal" font-weight="normal" text-decoration="none" x="200" y="120">UNREGISTERED</text><text fill="#eeeeee" stroke="none" font-family="Arial" font-size="24px" font-style="normal" font-weight="normal" text-decoration="none" x="200" y="150">UNREGISTERED</text><text fill="#eeeeee" stroke="none" font-family="Arial" font-size="24px" font-style="normal" font-weight="normal" text-decoration="none" x="200" y="180">UNREGISTERED</text><text fill="#eeeeee" stroke="none" font-family="Arial" font-size="24px" font-style="normal" font-weight="normal" text-decoration="none" x="200" y="210">UNREGISTERED</text><text fill="#eeeeee" stroke="none" font-family="Arial" font-size="24px" font-style="normal" font-weight="normal" text-decoration="none" x="400" y="0">UNREGISTERED</text><text fill="#eeeeee" stroke="none" font-family="Arial" font-size="24px" font-style="normal" font-weight="normal" text-decoration="none" x="400" y="30">UNREGISTERED</text><text fill="#eeeeee" stroke="none" font-family="Arial" font-size="24px" font-style="normal" font-weight="normal" text-decoration="none" x="400" y="60">UNREGISTERED</text><text fill="#eeeeee" stroke="none" font-family="Arial" font-size="24px" font-style="normal" font-weight="normal" text-decoration="none" x="400" y="90">UNREGISTERED</text><text fill="#eeeeee" stroke="none" font-family="Arial" font-size="24px" font-style="normal" font-weight="normal" text-decoration="none" x="400" y="120">UNREGISTERED</text><text fill="#eeeeee" stroke="none" font-family="Arial" font-size="24px" font-style="normal" font-weight="normal" text-decoration="none" x="400" y="150">UNREGISTERED</text><text fill="#eeeeee" stroke="none" font-family="Arial" font-size="24px" font-style="normal" font-weight="normal" text-decoration="none" x="400" y="180">UNREGISTERED</text><text fill="#eeeeee" stroke="none" font-family="Arial" font-size="24px" font-style="normal" font-weight="normal" text-decoration="none" x="400" y="210">UNREGISTERED</text><text fill="#eeeeee" stroke="none" font-family="Arial" font-size="24px" font-style="normal" font-weight="normal" text-decoration="none" x="600" y="0">UNREGISTERED</text><text fill="#eeeeee" stroke="none" font-family="Arial" font-size="24px" font-style="normal" font-weight="normal" text-decoration="none" x="600" y="30">UNREGISTERED</text><text fill="#eeeeee" stroke="none" font-family="Arial" font-size="24px" font-style="normal" font-weight="normal" text-decoration="none" x="600" y="60">UNREGISTERED</text><text fill="#eeeeee" stroke="none" font-family="Arial" font-size="24px" font-style="normal" font-weight="normal" text-decoration="none" x="600" y="90">UNREGISTERED</text><text fill="#eeeeee" stroke="none" font-family="Arial" font-size="24px" font-style="normal" font-weight="normal" text-decoration="none" x="600" y="120">UNREGISTERED</text><text fill="#eeeeee" stroke="none" font-family="Arial" font-size="24px" font-style="normal" font-weight="normal" text-decoration="none" x="600" y="150">UNREGISTERED</text><text fill="#eeeeee" stroke="none" font-family="Arial" font-size="24px" font-style="normal" font-weight="normal" text-decoration="none" x="600" y="180">UNREGISTERED</text><text fill="#eeeeee" stroke="none" font-family="Arial" font-size="24px" font-style="normal" font-weight="normal" text-decoration="none" x="600" y="210">UNREGISTERED</text><g transform="translate(-462,-382) scale(1,1)"><rect fill="#C0C0C0" stroke="none" x="479" y="399" width="268.79999999999995" height="15" opacity="0.2"/></g><g transform="translate(-462,-382) scale(1,1)"><rect fill="#C0C0C0" stroke="none" x="479" y="413" width="672" height="178" opacity="0.2"/></g><g transform="translate(-462,-382) scale(1,1)"><rect fill="#ffffff" stroke="none" x="472" y="407" width="672" height="177"/></g><g transform="translate(-462,-382) scale(1,1)"><path fill="none" stroke="#000000" d="M 472 407 L 1144 407 L 1144 584 L 472 584 L 472 407 Z Z" stroke-miterlimit="10"/></g><g transform="translate(-462,-382) scale(1,1)"><rect fill="#ffffff" stroke="none" x="472" y="392" width="268.79999999999995" height="15"/></g><g transform="translate(-462,-382) scale(1,1)"><path fill="none" stroke="#000000" d="M 472 392 L 740.8 392 L 740.8 407 L 472 407 L 472 392 Z Z" stroke-miterlimit="10"/></g><g transform="translate(-462,-382) scale(1,1)"><rect fill="#ffffff" stroke="none" x="472" y="406" width="672" height="178"/></g><g transform="translate(-462,-382) scale(1,1)"><path fill="none" stroke="#000000" d="M 472 406 L 1144 406 L 1144 584 L 472 584 L 472 406 Z Z" stroke-miterlimit="10"/></g><g transform="translate(-462,-382) scale(1,1)"><path fill="none" stroke="#000000" d="M 731.8 395 L 725.8 402 L 737.8 402 L 731.8 395" stroke-miterlimit="10"/></g><g transform="translate(-462,-382) scale(1,1)"><g><path fill="none" stroke="none"/><text fill="#000000" stroke="none" font-family="Arial" font-size="13px" font-style="normal" font-weight="bold" text-decoration="none" x="782.714111328125" y="426.5">Système</text></g></g><g transform="translate(-462,-382) scale(1,1)"><rect fill="#C0C0C0" stroke="none" x="727" y="447" width="73.20000000000005" height="15" opacity="0.2"/></g><g transform="translate(-462,-382) scale(1,1)"><rect fill="#C0C0C0" stroke="none" x="727" y="461" width="183" height="81" opacity="0.2"/></g><g transform="translate(-462,-382) scale(1,1)"><rect fill="#ffffff" stroke="none" x="720" y="455" width="183" height="80"/></g><g transform="translate(-462,-382) scale(1,1)"><path fill="none" stroke="#000000" d="M 720 455 L 903 455 L 903 535 L 720 535 L 720 455 Z Z" stroke-miterlimit="10"/></g><g transform="translate(-462,-382) scale(1,1)"><rect fill="#ffffff" stroke="none" x="720" y="440" width="73.20000000000005" height="15"/></g><g transform="translate(-462,-382) scale(1,1)"><path fill="none" stroke="#000000" d="M 720 440 L 793.2 440 L 793.2 455 L 720 455 L 720 440 Z Z" stroke-miterlimit="10"/></g><g transform="translate(-462,-382) scale(1,1)"><rect fill="#ffffff" stroke="none" x="720" y="454" width="183" height="81"/></g><g transform="translate(-462,-382) scale(1,1)"><path fill="none" stroke="#000000" d="M 720 454 L 903 454 L 903 535 L 720 535 L 720 454 Z Z" stroke-miterlimit="10"/></g><g transform="translate(-462,-382) scale(1,1)"><g><path fill="none" stroke="none"/><text fill="#000000" stroke="none" font-family="Arial" font-size="13px" font-style="normal" font-weight="bold" text-decoration="none" x="745.024169921875" y="474.5">Process de commande</text></g></g><g transform="translate(-462,-382) scale(1,1)"><rect fill="#C0C0C0" stroke="none" x="943" y="447" width="73.20000000000005" height="15" opacity="0.2"/></g><g transform="translate(-462,-382) scale(1,1)"><rect fill="#C0C0C0" stroke="none" x="943" y="461" width="183" height="82" opacity="0.2"/></g><g transform="translate(-462,-382) scale(1,1)"><rect fill="#ffffff" stroke="none" x="936" y="455" width="183" height="81"/></g><g transform="translate(-462,-382) scale(1,1)"><path fill="none" stroke="#000000" d="M 936 455 L 1119 455 L 1119 536 L 936 536 L 936 455 Z Z" stroke-miterlimit="10"/></g><g transform="translate(-462,-382) scale(1,1)"><rect fill="#ffffff" stroke="none" x="936" y="440" width="73.20000000000005" height="15"/></g><g transform="translate(-462,-382) scale(1,1)"><path fill="none" stroke="#000000" d="M 936 440 L 1009.2 440 L 1009.2 455 L 936 455 L 936 440 Z Z" stroke-miterlimit="10"/></g><g transform="translate(-462,-382) scale(1,1)"><rect fill="#ffffff" stroke="none" x="936" y="454" width="183" height="82"/></g><g transform="translate(-462,-382) scale(1,1)"><path fill="none" stroke="#000000" d="M 936 454 L 1119 454 L 1119 536 L 936 536 L 936 454 Z Z" stroke-miterlimit="10"/></g><g transform="translate(-462,-382) scale(1,1)"><g><path fill="none" stroke="none"/><text fill="#000000" stroke="none" font-family="Arial" font-size="13px" font-style="normal" font-weight="bold" text-decoration="none" x="986.31640625" y="474.5">Administration</text></g></g><g transform="translate(-462,-382) scale(1,1)"><rect fill="#C0C0C0" stroke="none" x="503" y="447" width="73.60000000000002" height="15" opacity="0.2"/></g><g transform="translate(-462,-382) scale(1,1)"><rect fill="#C0C0C0" stroke="none" x="503" y="461" width="184" height="81" opacity="0.2"/></g><g transform="translate(-462,-382) scale(1,1)"><rect fill="#ffffff" stroke="none" x="496" y="455" width="184" height="80"/></g><g transform="translate(-462,-382) scale(1,1)"><path fill="none" stroke="#000000" d="M 496 455 L 680 455 L 680 535 L 496 535 L 496 455 Z Z" stroke-miterlimit="10"/></g><g transform="translate(-462,-382) scale(1,1)"><rect fill="#ffffff" stroke="none" x="496" y="440" width="73.60000000000002" height="15"/></g><g transform="translate(-462,-382) scale(1,1)"><path fill="none" stroke="#000000" d="M 496 440 L 569.6 440 L 569.6 455 L 496 455 L 496 440 Z Z" stroke-miterlimit="10"/></g><g transform="translate(-462,-382) scale(1,1)"><rect fill="#ffffff" stroke="none" x="496" y="454" width="184" height="81"/></g><g transform="translate(-462,-382) scale(1,1)"><path fill="none" stroke="#000000" d="M 496 454 L 680 454 L 680 535 L 496 535 L 496 454 Z Z" stroke-miterlimit="10"/></g><g transform="translate(-462,-382) scale(1,1)"><g><path fill="none" stroke="none"/><text fill="#000000" stroke="none" font-family="Arial" font-size="13px" font-style="normal" font-weight="bold" text-decoration="none" x="524.40283203125" y="474.5">Navigation Connexion</text></g></g></g></svg>