<svg version="1.1" xmlns="http://www.w3.org/2000/svg" xmlns:xlink="http://www.w3.org/1999/xlink" width="804" height="523"><defs/><g><text fill="#eeeeee" stroke="none" font-family="Arial" font-size="24px" font-style="normal" font-weight="normal" text-decoration="none" x="0" y="0">UNREGISTERED</text><text fill="#eeeeee" stroke="none" font-family="Arial" font-size="24px" font-style="normal" font-weight="normal" text-decoration="none" x="0" y="30">UNREGISTERED</text><text fill="#eeeeee" stroke="none" font-family="Arial" font-size="24px" font-style="normal" font-weight="normal" text-decoration="none" x="0" y="60">UNREGISTERED</text><text fill="#eeeeee" stroke="none" font-family="Arial" font-size="24px" font-style="normal" font-weight="normal" text-decoration="none" x="0" y="90">UNREGISTERED</text><text fill="#eeeeee" stroke="none" font-family="Arial" font-size="24px" font-style="normal" font-weight="normal" text-decoration="none" x="0" y="120">UNREGISTERED</text><text fill="#eeeeee" stroke="none" font-family="Arial" font-size="24px" font-style="normal" font-weight="normal" text-decoration="none" x="0" y="150">UNREGISTERED</text><text fill="#eeeeee" stroke="none" font-family="Arial" font-size="24px" font-style="normal" font-weight="normal" text-decoration="none" x="0" y="180">UNREGISTERED</text><text fill="#eeeeee" stroke="none" font-family="Arial" font-size="24px" font-style="normal" font-weight="normal" text-decoration="none" x="0" y="210">UNREGISTERED</text><text fill="#eeeeee" stroke="none" font-family="Arial" font-size="24px" font-style="normal" font-weight="normal" text-decoration="none" x="0" y="240">UNREGISTERED</text><text fill="#eeeeee" stroke="none" font-family="Arial" font-size="24px" font-style="normal" font-weight="normal" text-decoration="none" x="0" y="270">UNREGISTERED</text><text fill="#eeeeee" stroke="none" font-family="Arial" font-size="24px" font-style="normal" font-weight="normal" text-decoration="none" x="0" y="300">UNREGISTERED</text><text fill="#eeeeee" stroke="none" font-family="Arial" font-size="24px" font-style="normal" font-weight="normal" text-decoration="none" x="0" y="330">UNREGISTERED</text><text fill="#eeeeee" stroke="none" font-family="Arial" font-size="24px" font-style="normal" font-weight="normal" text-decoration="none" x="0" y="360">UNREGISTERED</text><text fill="#eeeeee" stroke="none" font-family="Arial" font-size="24px" font-style="normal" font-weight="normal" text-decoration="none" x="0" y="390">UNREGISTERED</text><text fill="#eeeeee" stroke="none" font-family="Arial" font-size="24px" font-style="normal" font-weight="normal" text-decoration="none" x="0" y="420">UNREGISTERED</text><text fill="#eeeeee" stroke="none" font-family="Arial" font-size="24px" font-style="normal" font-weight="normal" text-decoration="none" x="0" y="450">UNREGISTERED</text><text fill="#eeeeee" stroke="none" font-family="Arial" font-size="24px" font-style="normal" font-weight="normal" text-decoration="none" x="0" y="480">UNREGISTERED</text><text fill="#eeeeee" stroke="none" font-family="Arial" font-size="24px" font-style="normal" font-weight="normal" text-decoration="none" x="0" y="510">UNREGISTERED</text><text fill="#eeeeee" stroke="none" font-family="Arial" font-size="24px" font-style="normal" font-weight="normal" text-decoration="none" x="200" y="0">UNREGISTERED</text><text fill="#eeeeee" stroke="none" font-family="Arial" font-size="24px" font-style="normal" font-weight="normal" text-decoration="none" x="200" y="30">UNREGISTERED</text><text fill="#eeeeee" stroke="none" font-family="Arial" font-size="24px" font-style="normal" font-weight="normal" text-decoration="none" x="200" y="60">UNREGISTERED</text><text fill="#eeeeee" stroke="none" font-family="Arial" font-size="24px" font-style="normal" font-weight="normal" text-decoration="none" x="200" y="90">UNREGISTERED</text><text fill="#eeeeee" stroke="none" font-family="Arial" font-size="24px" font-style="normal" font-weight="normal" text-decoration="none" x="200" y="120">UNREGISTERED</text><text fill="#eeeeee" stroke="none" font-family="Arial" font-size="24px" font-style="normal" font-weight="normal" text-decoration="none" x="200" y="150">UNREGISTERED</text><text fill="#eeeeee" stroke="none" font-family="Arial" font-size="24px" font-style="normal" font-weight="normal" text-decoration="none" x="200" y="180">UNREGISTERED</text><text fill="#eeeeee" stroke="none" font-family="Arial" font-size="24px" font-style="normal" font-weight="normal" text-decoration="none" x="200" y="210">UNREGISTERED</text><text fill="#eeeeee" stroke="none" font-family="Arial" font-size="24px" font-style="normal" font-weight="normal" text-decoration="none" x="200" y="240">UNREGISTERED</text><text fill="#eeeeee" stroke="none" font-family="Arial" font-size="24px" font-style="normal" font-weight="normal" text-decoration="none" x="200" y="270">UNREGISTERED</text><text fill="#eeeeee" stroke="none" font-family="Arial" font-size="24px" font-style="normal" font-weight="normal" text-decoration="none" x="200" y="300">UNREGISTERED</text><text fill="#eeeeee" stroke="none" font-family="Arial" font-size="24px" font-style="normal" font-weight="normal" text-decoration="none" x="200" y="330">UNREGISTERED</text><text fill="#eeeeee" stroke="none" font-family="Arial" font-size="24px" font-style="normal" font-weight="normal" text-decoration="none" x="200" y="360">UNREGISTERED</text><text fill="#eeeeee" stroke="none" font-family="Arial" font-size="24px" font-style="normal" font-weight="normal" text-decoration="none" x="200" y="390">UNREGISTERED</text><text fill="#eeeeee" stroke="none" font-family="Arial" font-size="24px" font-style="normal" font-weight="normal" text-decoration="none" x="200" y="420">UNREGISTERED</text><text fill="#eeeeee" stroke="none" font-family="Arial" font-size="24px" font-style="normal" font-weight="normal" text-decoration="none" x="200" y="450">UNREGISTERED</text><text fill="#eeeeee" stroke="none" font-family="Arial" font-size="24px" font-style="normal" font-weight="normal" text-decoration="none" x="200" y="480">UNREGISTERED</text><text fill="#eeeeee" stroke="none" font-family="Arial" font-size="24px" font-style="normal" font-weight="normal" text-decoration="none" x="200" y="510">UNREGISTERED</text><text fill="#eeeeee" stroke="none" font-family="Arial" font-size="24px" font-style="normal" font-weight="normal" text-decoration="none" x="400" y="0">UNREGISTERED</text><text fill="#eeeeee" stroke="none" font-family="Arial" font-size="24px" font-style="normal" font-weight="normal" text-decoration="none" x="400" y="30">UNREGISTERED</text><text fill="#eeeeee" stroke="none" font-family="Arial" font-size="24px" font-style="normal" font-weight="normal" text-decoration="none" x="400" y="60">UNREGISTERED</text><text fill="#eeeeee" stroke="none" font-family="Arial" font-size="24px" font-style="normal" font-weight="normal" text-decoration="none" x="400" y="90">UNREGISTERED</text><text fill="#eeeeee" stroke="none" font-family="Arial" font-size="24px" font-style="normal" font-weight="normal" text-decoration="none" x="400" y="120">UNREGISTERED</text><text fill="#eeeeee" stroke="none" font-family="Arial" font-size="24px" font-style="normal" font-weight="normal" text-decoration="none" x="400" y="150">UNREGISTERED</text><text fill="#eeeeee" stroke="none" font-family="Arial" font-size="24px" font-style="normal" font-weight="normal" text-decoration="none" x="400" y="180">UNREGISTERED</text><text fill="#eeeeee" stroke="none" font-family="Arial" font-size="24px" font-style="normal" font-weight="normal" text-decoration="none" x="400" y="210">UNREGISTERED</text><text fill="#eeeeee" stroke="none" font-family="Arial" font-size="24px" font-style="normal" font-weight="normal" text-decoration="none" x="400" y="240">UNREGISTERED</text><text fill="#eeeeee" stroke="none" font-family="Arial" font-size="24px" font-style="normal" font-weight="normal" text-decoration="none" x="400" y="270">UNREGISTERED</text><text fill="#eeeeee" stroke="none" font-family="Arial" font-size="24px" font-style="normal" font-weight="normal" text-decoration="none" x="400" y="300">UNREGISTERED</text><text fill="#eeeeee" stroke="none" font-family="Arial" font-size="24px" font-style="normal" font-weight="normal" text-decoration="none" x="400" y="330">UNREGISTERED</text><text fill="#eeeeee" stroke="none" font-family="Arial" font-size="24px" font-style="normal" font-weight="normal" text-decoration="none" x="400" y="360">UNREGISTERED</text><text fill="#eeeeee" stroke="none" font-family="Arial" font-size="24px" font-style="normal" font-weight="normal" text-decoration="none" x="400" y="390">UNREGISTERED</text><text fill="#eeeeee" stroke="none" font-family="Arial" font-size="24px" font-style="normal" font-weight="normal" text-decoration="none" x="400" y="420">UNREGISTERED</text><text fill="#eeeeee" stroke="none" font-family="Arial" font-size="24px" font-style="normal" font-weight="normal" text-decoration="none" x="400" y="450">UNREGISTERED</text><text fill="#eeeeee" stroke="none" font-family="Arial" font-size="24px" font-style="normal" font-weight="normal" text-decoration="none" x="400" y="480">UNREGISTERED</text><text fill="#eeeeee" stroke="none" font-family="Arial" font-size="24px" font-style="normal" font-weight="normal" text-decoration="none" x="400" y="510">UNREGISTERED</text><text fill="#eeeeee" stroke="none" font-family="Arial" font-size="24px" font-style="normal" font-weight="normal" text-decoration="none" x="600" y="0">UNREGISTERED</text><text fill="#eeeeee" stroke="none" font-family="Arial" font-size="24px" font-style="normal" font-weight="normal" text-decoration="none" x="600" y="30">UNREGISTERED</text><text fill="#eeeeee" stroke="none" font-family="Arial" font-size="24px" font-style="normal" font-weight="normal" text-decoration="none" x="600" y="60">UNREGISTERED</text><text fill="#eeeeee" stroke="none" font-family="Arial" font-size="24px" font-style="normal" font-weight="normal" text-decoration="none" x="600" y="90">UNREGISTERED</text><text fill="#eeeeee" stroke="none" font-family="Arial" font-size="24px" font-style="normal" font-weight="normal" text-decoration="none" x="600" y="120">UNREGISTERED</text><text fill="#eeeeee" stroke="none" font-family="Arial" font-size="24px" font-style="normal" font-weight="normal" text-decoration="none" x="600" y="150">UNREGISTERED</text><text fill="#eeeeee" stroke="none" font-family="Arial" font-size="24px" font-style="normal" font-weight="normal" text-decoration="none" x="600" y="180">UNREGISTERED</text><text fill="#eeeeee" stroke="none" font-family="Arial" font-size="24px" font-style="normal" font-weight="normal" text-decoration="none" x="600" y="210">UNREGISTERED</text><text fill="#eeeeee" stroke="none" font-family="Arial" font-size="24px" font-style="normal" font-weight="normal" text-decoration="none" x="600" y="240">UNREGISTERED</text><text fill="#eeeeee" stroke="none" font-family="Arial" font-size="24px" font-style="normal" font-weight="normal" text-decoration="none" x="600" y="270">UNREGISTERED</text><text fill="#eeeeee" stroke="none" font-family="Arial" font-size="24px" font-style="normal" font-weight="normal" text-decoration="none" x="600" y="300">UNREGISTERED</text><text fill="#eeeeee" stroke="none" font-family="Arial" font-size="24px" font-style="normal" font-weight="normal" text-decoration="none" x="600" y="330">UNREGISTERED</text><text fill="#eeeeee" stroke="none" font-family="Arial" font-size="24px" font-style="normal" font-weight="normal" text-decoration="none" x="600" y="360">UNREGISTERED</text><text fill="#eeeeee" stroke="none" font-family="Arial" font-size="24px" font-style="normal" font-weight="normal" text-decoration="none" x="600" y="390">UNREGISTERED</text><text fill="#eeeeee" stroke="none" font-family="Arial" font-size="24px" font-style="normal" font-weight="normal" text-decoration="none" x="600" y="420">UNREGISTERED</text><text fill="#eeeeee" stroke="none" font-family="Arial" font-size="24px" font-style="normal" font-weight="normal" text-decoration="none" x="600" y="450">UNREGISTERED</text><text fill="#eeeeee" stroke="none" font-family="Arial" font-size="24px" font-style="normal" font-weight="normal" text-decoration="none" x="600" y="480">UNREGISTERED</text><text fill="#eeeeee" stroke="none" font-family="Arial" font-size="24px" font-style="normal" font-weight="normal" text-decoration="none" x="600" y="510">UNREGISTERED</text><text fill="#eeeeee" stroke="none" font-family="Arial" font-size="24px" font-style="normal" font-weight="normal" text-decoration="none" x="800" y="0">UNREGISTERED</text><text fill="#eeeeee" stroke="none" font-family="Arial" font-size="24px" font-style="normal" font-weight="normal" text-decoration="none" x="800" y="30">UNREGISTERED</text><text fill="#eeeeee" stroke="none" font-family="Arial" font-size="24px" font-style="normal" font-weight="normal" text-decoration="none" x="800" y="60">UNREGISTERED</text><text fill="#eeeeee" stroke="none" font-family="Arial" font-size="24px" font-style="normal" font-weight="normal" text-decoration="none" x="800" y="90">UNREGISTERED</text><text fill="#eeeeee" stroke="none" font-family="Arial" font-size="24px" font-style="normal" font-weight="normal" text-decoration="none" x="800" y="120">UNREGISTERED</text><text fill="#eeeeee" stroke="none" font-family="Arial" font-size="24px" font-style="normal" font-weight="normal" text-decoration="none" x="800" y="150">UNREGISTERED</text><text fill="#eeeeee" stroke="none" font-family="Arial" font-size="24px" font-style="normal" font-weight="normal" text-decoration="none" x="800" y="180">UNREGISTERED</text><text fill="#eeeeee" stroke="none" font-family="Arial" font-size="24px" font-style="normal" font-weight="normal" text-decoration="none" x="800" y="210">UNREGISTERED</text><text fill="#eeeeee" stroke="none" font-family="Arial" font-size="24px" font-style="normal" font-weight="normal" text-decoration="none" x="800" y="240">UNREGISTERED</text><text fill="#eeeeee" stroke="none" font-family="Arial" font-size="24px" font-style="normal" font-weight="normal" text-decoration="none" x="800" y="270">UNREGISTERED</text><text fill="#eeeeee" stroke="none" font-family="Arial" font-size="24px" font-style="normal" font-weight="normal" text-decoration="none" x="800" y="300">UNREGISTERED</text><text fill="#eeeeee" stroke="none" font-family="Arial" font-size="24px" font-style="normal" font-weight="normal" text-decoration="none" x="800" y="330">UNREGISTERED</text><text fill="#eeeeee" stroke="none" font-family="Arial" font-size="24px" font-style="normal" font-weight="normal" text-decoration="none" x="800" y="360">UNREGISTERED</text><text fill="#eeeeee" stroke="none" font-family="Arial" font-size="24px" font-style="normal" font-weight="normal" text-decoration="none" x="800" y="390">UNREGISTERED</text><text fill="#eeeeee" stroke="none" font-family="Arial" font-size="24px" font-style="normal" font-weight="normal" text-decoration="none" x="800" y="420">UNREGISTERED</text><text fill="#eeeeee" stroke="none" font-family="Arial" font-size="24px" font-style="normal" font-weight="normal" text-decoration="none" x="800" y="450">UNREGISTERED</text><text fill="#eeeeee" stroke="none" font-family="Arial" font-size="24px" font-style="normal" font-weight="normal" text-decoration="none" x="800" y="480">UNREGISTERED</text><text fill="#eeeeee" stroke="none" font-family="Arial" font-size="24px" font-style="normal" font-weight="normal" text-decoration="none" x="800" y="510">UNREGISTERED</text><g transform="translate(-30,-214) scale(1,1)"><rect fill="#C0C0C0" stroke="none" x="287" y="231" width="544" height="496" opacity="0.2"/></g><g transform="translate(-30,-214) scale(1,1)"><rect fill="#ffffff" stroke="none" x="280" y="224" width="544" height="496"/></g><g transform="translate(-30,-214) scale(1,1)"><path fill="none" stroke="#000000" d="M 280 224 L 824 224 L 824 720 L 280 720 L 280 224 Z Z" stroke-miterlimit="10"/></g><g transform="translate(-30,-214) scale(1,1)"><g><path fill="none" stroke="none"/><text fill="#000000" stroke="none" font-family="Arial" font-size="13px" font-style="normal" font-weight="bold" text-decoration="none" x="488.40283203125" y="243.5">Navigation Connexion</text></g></g><g transform="translate(-30,-214) scale(1,1)"><path fill="#C0C0C0" stroke="none" d="M 359 512 C 359 502.6111584 381.6096176 495 409.5 495 C 437.3903824 495 460 502.6111584 460 512 C 460 521.3888416 437.3903824 529 409.5 529 C 381.6096176 529 359 521.3888416 359 512 Z" opacity="0.2"/></g><g transform="translate(-30,-214) scale(1,1)"><path fill="#ffffff" stroke="none" d="M 352 505 C 352 495.6111584 374.6096176 488 402.5 488 C 430.3903824 488 453 495.6111584 453 505 C 453 514.3888416 430.3903824 522 402.5 522 C 374.6096176 522 352 514.3888416 352 505 Z"/></g><g transform="translate(-30,-214) scale(1,1)"><path fill="none" stroke="#000000" d="M 352 505 C 352 495.6111584 374.6096176 488 402.5 488 C 430.3903824 488 453 495.6111584 453 505 C 453 514.3888416 430.3903824 522 402.5 522 C 374.6096176 522 352 514.3888416 352 505 Z" stroke-miterlimit="10"/></g><g transform="translate(-30,-214) scale(1,1)"><g><path fill="none" stroke="none"/><text fill="#000000" stroke="none" font-family="Arial" font-size="13px" font-style="normal" font-weight="bold" text-decoration="none" x="373.59912109375" y="512">Voir Pizza</text></g></g><g transform="translate(-30,-214) scale(1,1)"><path fill="#C0C0C0" stroke="none" d="M 343 432 C 343 422.6111584 371.6537728 415 407 415 C 442.3462272 415 471 422.6111584 471 432 C 471 441.3888416 442.3462272 449 407 449 C 371.6537728 449 343 441.3888416 343 432 Z" opacity="0.2"/></g><g transform="translate(-30,-214) scale(1,1)"><path fill="#ffffff" stroke="none" d="M 336 425 C 336 415.6111584 364.6537728 408 400 408 C 435.3462272 408 464 415.6111584 464 425 C 464 434.3888416 435.3462272 442 400 442 C 364.6537728 442 336 434.3888416 336 425 Z"/></g><g transform="translate(-30,-214) scale(1,1)"><path fill="none" stroke="#000000" d="M 336 425 C 336 415.6111584 364.6537728 408 400 408 C 435.3462272 408 464 415.6111584 464 425 C 464 434.3888416 435.3462272 442 400 442 C 364.6537728 442 336 434.3888416 336 425 Z" stroke-miterlimit="10"/></g><g transform="translate(-30,-214) scale(1,1)"><g><path fill="none" stroke="none"/><text fill="#000000" stroke="none" font-family="Arial" font-size="13px" font-style="normal" font-weight="bold" text-decoration="none" x="361.6982421875" y="432">Se connecter</text></g></g><g transform="translate(-30,-214) scale(1,1)"><path fill="#ffffff" stroke="none" d="M 103.11296360085227 273.68 C 103.11296360085227 268.886167936 106.99880592579773 265 111.792236328125 265 C 116.58566673045227 265 120.47150905539773 268.886167936 120.47150905539773 273.68 C 120.47150905539773 278.473832064 116.58566673045227 282.36 111.792236328125 282.36 C 106.99880592579773 282.36 103.11296360085227 278.473832064 103.11296360085227 273.68 Z"/></g><g transform="translate(-30,-214) scale(1,1)"><path fill="none" stroke="#000000" d="M 103.11296360085227 273.68 C 103.11296360085227 268.886167936 106.99880592579773 265 111.792236328125 265 C 116.58566673045227 265 120.47150905539773 268.886167936 120.47150905539773 273.68 C 120.47150905539773 278.473832064 116.58566673045227 282.36 111.792236328125 282.36 C 106.99880592579773 282.36 103.11296360085227 278.473832064 103.11296360085227 273.68 Z" stroke-miterlimit="10"/></g><g transform="translate(-30,-214) scale(1,1)"><path fill="none" stroke="#000000" d="M 111.792236328125 282.36 L 111.792236328125 299.64" stroke-miterlimit="10"/></g><g transform="translate(-30,-214) scale(1,1)"><path fill="none" stroke="#000000" d="M 102.60241814630682 288.84 L 120.98205450994318 288.84" stroke-miterlimit="10"/></g><g transform="translate(-30,-214) scale(1,1)"><path fill="none" stroke="#000000" d="M 111.792236328125 299.64 L 99.02859996448863 317" stroke-miterlimit="10"/></g><g transform="translate(-30,-214) scale(1,1)"><path fill="none" stroke="#000000" d="M 111.792236328125 299.64 L 124.55587269176137 317" stroke-miterlimit="10"/></g><g transform="translate(-30,-214) scale(1,1)"><g><path fill="none" stroke="none"/><text fill="#000000" stroke="none" font-family="Arial" font-size="13px" font-style="normal" font-weight="bold" text-decoration="none" x="64.464111328125" y="337.5">Client enregistré</text></g></g><g transform="translate(-30,-214) scale(1,1)"><path fill="#ffffff" stroke="none" d="M 162.05070774147728 657.6800000000001 C 162.05070774147728 652.8861679360001 165.93655006642274 649 170.72998046875 649 C 175.52341087107726 649 179.40925319602272 652.8861679360001 179.40925319602272 657.6800000000001 C 179.40925319602272 662.473832064 175.52341087107726 666.36 170.72998046875 666.36 C 165.93655006642274 666.36 162.05070774147728 662.473832064 162.05070774147728 657.6800000000001 Z"/></g><g transform="translate(-30,-214) scale(1,1)"><path fill="none" stroke="#000000" d="M 162.05070774147728 657.6800000000001 C 162.05070774147728 652.8861679360001 165.93655006642274 649 170.72998046875 649 C 175.52341087107726 649 179.40925319602272 652.8861679360001 179.40925319602272 657.6800000000001 C 179.40925319602272 662.473832064 175.52341087107726 666.36 170.72998046875 666.36 C 165.93655006642274 666.36 162.05070774147728 662.473832064 162.05070774147728 657.6800000000001 Z" stroke-miterlimit="10"/></g><g transform="translate(-30,-214) scale(1,1)"><path fill="none" stroke="#000000" d="M 170.72998046875 666.36 L 170.72998046875 683.64" stroke-miterlimit="10"/></g><g transform="translate(-30,-214) scale(1,1)"><path fill="none" stroke="#000000" d="M 161.54016228693183 672.84 L 179.91979865056817 672.84" stroke-miterlimit="10"/></g><g transform="translate(-30,-214) scale(1,1)"><path fill="none" stroke="#000000" d="M 170.72998046875 683.64 L 157.96634410511365 701" stroke-miterlimit="10"/></g><g transform="translate(-30,-214) scale(1,1)"><path fill="none" stroke="#000000" d="M 170.72998046875 683.64 L 183.49361683238635 701" stroke-miterlimit="10"/></g><g transform="translate(-30,-214) scale(1,1)"><g><path fill="none" stroke="none"/><text fill="#000000" stroke="none" font-family="Arial" font-size="13px" font-style="normal" font-weight="bold" text-decoration="none" x="128.825927734375" y="721.5">Administrateur</text></g></g><g transform="translate(-30,-214) scale(1,1)"><path fill="#ffffff" stroke="none" d="M 72.31022922585227 593.6800000000001 C 72.31022922585227 588.8861679360001 76.19607155079773 585 80.989501953125 585 C 85.78293235545227 585 89.66877468039773 588.8861679360001 89.66877468039773 593.6800000000001 C 89.66877468039773 598.473832064 85.78293235545227 602.36 80.989501953125 602.36 C 76.19607155079773 602.36 72.31022922585227 598.473832064 72.31022922585227 593.6800000000001 Z"/></g><g transform="translate(-30,-214) scale(1,1)"><path fill="none" stroke="#000000" d="M 72.31022922585227 593.6800000000001 C 72.31022922585227 588.8861679360001 76.19607155079773 585 80.989501953125 585 C 85.78293235545227 585 89.66877468039773 588.8861679360001 89.66877468039773 593.6800000000001 C 89.66877468039773 598.473832064 85.78293235545227 602.36 80.989501953125 602.36 C 76.19607155079773 602.36 72.31022922585227 598.473832064 72.31022922585227 593.6800000000001 Z" stroke-miterlimit="10"/></g><g transform="translate(-30,-214) scale(1,1)"><path fill="none" stroke="#000000" d="M 80.989501953125 602.36 L 80.989501953125 619.64" stroke-miterlimit="10"/></g><g transform="translate(-30,-214) scale(1,1)"><path fill="none" stroke="#000000" d="M 71.79968377130682 608.84 L 90.17932013494318 608.84" stroke-miterlimit="10"/></g><g transform="translate(-30,-214) scale(1,1)"><path fill="none" stroke="#000000" d="M 80.989501953125 619.64 L 68.22586558948863 637" stroke-miterlimit="10"/></g><g transform="translate(-30,-214) scale(1,1)"><path fill="none" stroke="#000000" d="M 80.989501953125 619.64 L 93.75313831676137 637" stroke-miterlimit="10"/></g><g transform="translate(-30,-214) scale(1,1)"><g><path fill="none" stroke="none"/><text fill="#000000" stroke="none" font-family="Arial" font-size="13px" font-style="normal" font-weight="bold" text-decoration="none" x="55.70361328125" y="657.5">Cuisinier</text></g></g><g transform="translate(-30,-214) scale(1,1)"><path fill="#ffffff" stroke="none" d="M 73.85661594460227 481.68 C 73.85661594460227 476.886167936 77.74245826954773 473 82.535888671875 473 C 87.32931907420227 473 91.21516139914773 476.886167936 91.21516139914773 481.68 C 91.21516139914773 486.473832064 87.32931907420227 490.36 82.535888671875 490.36 C 77.74245826954773 490.36 73.85661594460227 486.473832064 73.85661594460227 481.68 Z"/></g><g transform="translate(-30,-214) scale(1,1)"><path fill="none" stroke="#000000" d="M 73.85661594460227 481.68 C 73.85661594460227 476.886167936 77.74245826954773 473 82.535888671875 473 C 87.32931907420227 473 91.21516139914773 476.886167936 91.21516139914773 481.68 C 91.21516139914773 486.473832064 87.32931907420227 490.36 82.535888671875 490.36 C 77.74245826954773 490.36 73.85661594460227 486.473832064 73.85661594460227 481.68 Z" stroke-miterlimit="10"/></g><g transform="translate(-30,-214) scale(1,1)"><path fill="none" stroke="#000000" d="M 82.535888671875 490.36 L 82.535888671875 507.64" stroke-miterlimit="10"/></g><g transform="translate(-30,-214) scale(1,1)"><path fill="none" stroke="#000000" d="M 73.34607049005682 496.84 L 91.72570685369318 496.84" stroke-miterlimit="10"/></g><g transform="translate(-30,-214) scale(1,1)"><path fill="none" stroke="#000000" d="M 82.535888671875 507.64 L 69.77225230823863 525" stroke-miterlimit="10"/></g><g transform="translate(-30,-214) scale(1,1)"><path fill="none" stroke="#000000" d="M 82.535888671875 507.64 L 95.29952503551137 525" stroke-miterlimit="10"/></g><g transform="translate(-30,-214) scale(1,1)"><g><path fill="none" stroke="none"/><text fill="#000000" stroke="none" font-family="Arial" font-size="13px" font-style="normal" font-weight="bold" text-decoration="none" x="62.667724609375" y="545.5">Livreur</text></g></g><g transform="translate(-30,-214) scale(1,1)"><path fill="#ffffff" stroke="none" d="M 73.39250461647727 393.68 C 73.39250461647727 388.886167936 77.27834694142273 385 82.07177734375 385 C 86.86520774607727 385 90.75105007102273 388.886167936 90.75105007102273 393.68 C 90.75105007102273 398.473832064 86.86520774607727 402.36 82.07177734375 402.36 C 77.27834694142273 402.36 73.39250461647727 398.473832064 73.39250461647727 393.68 Z"/></g><g transform="translate(-30,-214) scale(1,1)"><path fill="none" stroke="#000000" d="M 73.39250461647727 393.68 C 73.39250461647727 388.886167936 77.27834694142273 385 82.07177734375 385 C 86.86520774607727 385 90.75105007102273 388.886167936 90.75105007102273 393.68 C 90.75105007102273 398.473832064 86.86520774607727 402.36 82.07177734375 402.36 C 77.27834694142273 402.36 73.39250461647727 398.473832064 73.39250461647727 393.68 Z" stroke-miterlimit="10"/></g><g transform="translate(-30,-214) scale(1,1)"><path fill="none" stroke="#000000" d="M 82.07177734375 402.36 L 82.07177734375 419.64" stroke-miterlimit="10"/></g><g transform="translate(-30,-214) scale(1,1)"><path fill="none" stroke="#000000" d="M 72.88195916193182 408.84 L 91.26159552556818 408.84" stroke-miterlimit="10"/></g><g transform="translate(-30,-214) scale(1,1)"><path fill="none" stroke="#000000" d="M 82.07177734375 419.64 L 69.30814098011363 437" stroke-miterlimit="10"/></g><g transform="translate(-30,-214) scale(1,1)"><path fill="none" stroke="#000000" d="M 82.07177734375 419.64 L 94.83541370738637 437" stroke-miterlimit="10"/></g><g transform="translate(-30,-214) scale(1,1)"><g><path fill="none" stroke="none"/><text fill="#000000" stroke="none" font-family="Arial" font-size="13px" font-style="normal" font-weight="bold" text-decoration="none" x="47.38818359375" y="457.5">Superviseur</text></g></g><g transform="translate(-30,-214) scale(1,1)"><path fill="#ffffff" stroke="none" d="M 211.54509250710228 409.68 C 211.54509250710228 404.886167936 215.43093483204774 401 220.224365234375 401 C 225.01779563670226 401 228.90363796164772 404.886167936 228.90363796164772 409.68 C 228.90363796164772 414.473832064 225.01779563670226 418.36 220.224365234375 418.36 C 215.43093483204774 418.36 211.54509250710228 414.473832064 211.54509250710228 409.68 Z"/></g><g transform="translate(-30,-214) scale(1,1)"><path fill="none" stroke="#000000" d="M 211.54509250710228 409.68 C 211.54509250710228 404.886167936 215.43093483204774 401 220.224365234375 401 C 225.01779563670226 401 228.90363796164772 404.886167936 228.90363796164772 409.68 C 228.90363796164772 414.473832064 225.01779563670226 418.36 220.224365234375 418.36 C 215.43093483204774 418.36 211.54509250710228 414.473832064 211.54509250710228 409.68 Z" stroke-miterlimit="10"/></g><g transform="translate(-30,-214) scale(1,1)"><path fill="none" stroke="#000000" d="M 220.224365234375 418.36 L 220.224365234375 435.64" stroke-miterlimit="10"/></g><g transform="translate(-30,-214) scale(1,1)"><path fill="none" stroke="#000000" d="M 211.03454705255683 424.84 L 229.41418341619317 424.84" stroke-miterlimit="10"/></g><g transform="translate(-30,-214) scale(1,1)"><path fill="none" stroke="#000000" d="M 220.224365234375 435.64 L 207.46072887073865 453" stroke-miterlimit="10"/></g><g transform="translate(-30,-214) scale(1,1)"><path fill="none" stroke="#000000" d="M 220.224365234375 435.64 L 232.98800159801135 453" stroke-miterlimit="10"/></g><g transform="translate(-30,-214) scale(1,1)"><g><path fill="none" stroke="none"/><text fill="#000000" stroke="none" font-family="Arial" font-size="13px" font-style="normal" font-weight="bold" text-decoration="none" x="198.667724609375" y="473.5">Visiteur</text></g></g><g transform="translate(-30,-214) scale(1,1)"><path fill="none" stroke="#000000" d="M 144 344 L 191 403" stroke-miterlimit="10"/></g><g transform="translate(-30,-214) scale(1,1)"><path fill="#FFFFFF" stroke="none" d="M 171.7507049377677 392.3480217984114 L 191 403 L 184.92077894782938 381.85660690904024"/></g><g transform="translate(-30,-214) scale(1,1)"><path fill="none" stroke="#000000" d="M 171.7507049377677 392.3480217984114 L 191 403 L 184.92077894782938 381.85660690904024 L 171.7507049377677 392.3480217984114" stroke-miterlimit="10"/></g><g transform="translate(-30,-214) scale(1,1)"><path fill="none" stroke="#000000" d="M 125 428 L 191 436" stroke-miterlimit="10"/></g><g transform="translate(-30,-214) scale(1,1)"><path fill="#FFFFFF" stroke="none" d="M 169.80926464966797 441.912083838393 L 191 436 L 171.83541276237963 425.19636190852185"/></g><g transform="translate(-30,-214) scale(1,1)"><path fill="none" stroke="#000000" d="M 169.80926464966797 441.912083838393 L 191 436 L 171.83541276237963 425.19636190852185 L 169.80926464966797 441.912083838393" stroke-miterlimit="10"/></g><g transform="translate(-30,-214) scale(1,1)"><path fill="none" stroke="#000000" d="M 110 496 L 191 454" stroke-miterlimit="10"/></g><g transform="translate(-30,-214) scale(1,1)"><path fill="#FFFFFF" stroke="none" d="M 176.83150524134862 470.8301442737152 L 191 454 L 169.0806521326596 455.8820704212435"/></g><g transform="translate(-30,-214) scale(1,1)"><path fill="none" stroke="#000000" d="M 176.83150524134862 470.8301442737152 L 191 454 L 169.0806521326596 455.8820704212435 L 176.83150524134862 470.8301442737152" stroke-miterlimit="10"/></g><g transform="translate(-30,-214) scale(1,1)"><path fill="none" stroke="#000000" d="M 110 583 L 191 477" stroke-miterlimit="10"/></g><g transform="translate(-30,-214) scale(1,1)"><path fill="#FFFFFF" stroke="none" d="M 185.34853777637124 498.2617255822498 L 191 477 L 171.96950239911615 488.0381230769889"/></g><g transform="translate(-30,-214) scale(1,1)"><path fill="none" stroke="#000000" d="M 185.34853777637124 498.2617255822498 L 191 477 L 171.96950239911615 488.0381230769889 L 185.34853777637124 498.2617255822498" stroke-miterlimit="10"/></g><g transform="translate(-30,-214) scale(1,1)"><path fill="none" stroke="#000000" d="M 249 450 L 352 487" stroke-miterlimit="10"/></g><g transform="translate(-30,-214) scale(1,1)"><path fill="none" stroke="#000000" d="M 249 437 L 335 430" stroke-miterlimit="10"/></g><g transform="translate(-30,-214) scale(1,1)"><path fill="#C0C0C0" stroke="none" d="M 359 280 C 359 270.6111584 381.6096176 263 409.5 263 C 437.3903824 263 460 270.6111584 460 280 C 460 289.3888416 437.3903824 297 409.5 297 C 381.6096176 297 359 289.3888416 359 280 Z" opacity="0.2"/></g><g transform="translate(-30,-214) scale(1,1)"><path fill="#ffffff" stroke="none" d="M 352 273 C 352 263.6111584 374.6096176 256 402.5 256 C 430.3903824 256 453 263.6111584 453 273 C 453 282.3888416 430.3903824 290 402.5 290 C 374.6096176 290 352 282.3888416 352 273 Z"/></g><g transform="translate(-30,-214) scale(1,1)"><path fill="none" stroke="#000000" d="M 352 273 C 352 263.6111584 374.6096176 256 402.5 256 C 430.3903824 256 453 263.6111584 453 273 C 453 282.3888416 430.3903824 290 402.5 290 C 374.6096176 290 352 282.3888416 352 273 Z" stroke-miterlimit="10"/></g><g transform="translate(-30,-214) scale(1,1)"><g><path fill="none" stroke="none"/><text fill="#000000" stroke="none" font-family="Arial" font-size="13px" font-style="normal" font-weight="bold" text-decoration="none" x="375.976318359375" y="280">S'inscrire</text></g></g><g transform="translate(-30,-214) scale(1,1)"><path fill="none" stroke="#000000" d="M 169 297 L 351 278" stroke-miterlimit="10"/></g><g transform="translate(-30,-214) scale(1,1)"><path fill="none" stroke="#000000" d="M 178 647 L 212 480" stroke-miterlimit="10"/></g><g transform="translate(-30,-214) scale(1,1)"><path fill="#FFFFFF" stroke="none" d="M 216.19488402296153 501.5963642318308 L 212 480 L 199.695295341625 498.2371665362294"/></g><g transform="translate(-30,-214) scale(1,1)"><path fill="none" stroke="#000000" d="M 216.19488402296153 501.5963642318308 L 212 480 L 199.695295341625 498.2371665362294 L 216.19488402296153 501.5963642318308" stroke-miterlimit="10"/></g><g transform="translate(-30,-214) scale(1,1)"><path fill="#C0C0C0" stroke="none" d="M 591 432 C 591 422.6111584 633.7568016 415 686.5 415 C 739.2431984 415 782 422.6111584 782 432 C 782 441.3888416 739.2431984 449 686.5 449 C 633.7568016 449 591 441.3888416 591 432 Z" opacity="0.2"/></g><g transform="translate(-30,-214) scale(1,1)"><path fill="#ffffff" stroke="none" d="M 584 425 C 584 415.6111584 626.7568016 408 679.5 408 C 732.2431984 408 775 415.6111584 775 425 C 775 434.3888416 732.2431984 442 679.5 442 C 626.7568016 442 584 434.3888416 584 425 Z"/></g><g transform="translate(-30,-214) scale(1,1)"><path fill="none" stroke="#000000" d="M 584 425 C 584 415.6111584 626.7568016 408 679.5 408 C 732.2431984 408 775 415.6111584 775 425 C 775 434.3888416 732.2431984 442 679.5 442 C 626.7568016 442 584 434.3888416 584 425 Z" stroke-miterlimit="10"/></g><g transform="translate(-30,-214) scale(1,1)"><g><path fill="none" stroke="none"/><text fill="#000000" stroke="none" font-family="Arial" font-size="13px" font-style="normal" font-weight="bold" text-decoration="none" x="620.965087890625" y="432">Erreur de connexion</text></g></g><g transform="translate(-30,-214) scale(1,1)"><path fill="none" stroke="#000000" d="M 583 425 L 465 425" stroke-miterlimit="10" stroke-dasharray="3"/></g><g transform="translate(-30,-214) scale(1,1)"><path fill="none" stroke="#000000" d="M 475.16267485762415 420.790482243984 L 465 425 L 475.16267485762415 429.209517756016" stroke-miterlimit="10"/></g><g transform="translate(-30,-214) scale(1,1)"><g><path fill="none" stroke="none"/><text fill="#000000" stroke="none" font-family="Arial" font-size="13px" font-style="normal" font-weight="normal" text-decoration="none" x="496.5" y="461.5">«extend»</text></g></g></g></svg>